<svg xmlns="http://www.w3.org/2000/svg" xmlns:xlink="http://www.w3.org/1999/xlink" width="500" zoomAndPan="magnify" viewBox="0 0 375 374.999991" height="500" preserveAspectRatio="xMidYMid meet" version="1.2"><defs><clipPath id="f6fc8500c1"><path d="M 37.5 13.722656 L 337.300781 13.722656 L 337.300781 168 L 37.5 168 Z M 37.5 13.722656 "/></clipPath><clipPath id="3ccd4815e9"><path d="M 90.972656 168.222656 L 283.9375 168.222656 L 283.9375 361.1875 L 90.972656 361.1875 Z M 90.972656 168.222656 "/></clipPath></defs><g id="bb2333597b"><g clip-rule="nonzero" clip-path="url(#f6fc8500c1)"><path style=" stroke:none;fill-rule:nonzero;fill:#01e376;fill-opacity:1;" d="M 260.207031 13.796875 L 114.59375 13.796875 C 72.082031 13.796875 37.5 48.382812 37.5 90.890625 C 37.5 133.398438 72.082031 167.984375 114.59375 167.984375 L 260.207031 167.984375 C 302.71875 167.984375 337.300781 133.398438 337.300781 90.890625 C 337.300781 48.378906 302.714844 13.796875 260.207031 13.796875 Z M 260.207031 145.957031 L 114.59375 145.957031 C 84.230469 145.957031 59.527344 121.253906 59.527344 90.890625 C 59.527344 60.523438 84.230469 35.820312 114.59375 35.820312 L 260.207031 35.820312 C 290.570312 35.820312 315.277344 60.523438 315.277344 90.890625 C 315.277344 121.253906 290.570312 145.957031 260.207031 145.957031 Z M 260.207031 145.957031 "/></g><path style=" stroke:none;fill-rule:nonzero;fill:#01e376;fill-opacity:1;" d="M 260.207031 68.863281 L 114.59375 68.863281 C 102.429688 68.863281 92.566406 78.726562 92.566406 90.890625 C 92.566406 103.054688 102.429688 112.917969 114.59375 112.917969 L 260.207031 112.917969 C 272.371094 112.917969 282.234375 103.054688 282.234375 90.890625 C 282.234375 78.726562 272.371094 68.863281 260.207031 68.863281 Z M 260.207031 68.863281 "/><g clip-rule="nonzero" clip-path="url(#3ccd4815e9)"><path style=" stroke:none;fill-rule:nonzero;fill:#01e376;fill-opacity:1;" d="M 187.457031 168.222656 C 134.171875 168.222656 90.972656 211.421875 90.972656 264.707031 C 90.972656 317.988281 134.171875 361.1875 187.457031 361.1875 C 240.738281 361.1875 283.9375 317.988281 283.9375 264.707031 C 283.9375 211.421875 240.738281 168.222656 187.457031 168.222656 Z M 187.457031 345.9375 C 142.566406 345.9375 106.226562 309.542969 106.226562 264.707031 C 106.226562 219.867188 142.566406 183.476562 187.457031 183.476562 C 232.34375 183.476562 268.6875 219.816406 268.6875 264.707031 C 268.6875 309.59375 232.34375 345.9375 187.457031 345.9375 Z M 187.457031 345.9375 "/></g><path style=" stroke:none;fill-rule:nonzero;fill:#01e376;fill-opacity:1;" d="M 217.757812 255.441406 L 194.261719 255.441406 L 194.261719 203.027344 C 194.261719 199.1875 189.09375 197.960938 187.351562 201.390625 L 153.878906 268.699219 C 152.699219 271.105469 154.441406 273.96875 157.152344 273.96875 L 180.648438 273.96875 L 180.648438 326.332031 C 180.648438 330.171875 185.816406 331.398438 187.558594 327.96875 L 221.03125 260.660156 C 222.210938 258.257812 220.46875 255.441406 217.757812 255.441406 Z M 217.757812 255.441406 "/><path style=" stroke:none;fill-rule:nonzero;fill:#000000;fill-opacity:0.05;" d="M 217.757812 255.441406 L 216.222656 255.441406 C 211.152344 277.398438 198.253906 296.335938 180.648438 309.183594 L 180.648438 326.382812 C 180.648438 330.222656 185.816406 331.449219 187.558594 328.019531 L 221.03125 260.714844 C 222.210938 258.257812 220.46875 255.441406 217.757812 255.441406 Z M 217.757812 255.441406 "/></g></svg>