<svg xmlns="http://www.w3.org/2000/svg" xmlns:xlink="http://www.w3.org/1999/xlink" width="256" zoomAndPan="magnify" viewBox="0 0 192 107.999999" height="144" preserveAspectRatio="xMidYMid meet" version="1.0"><defs><clipPath id="7c2562c54d"><path d="M 2.289062 5.738281 L 189.789062 5.738281 L 189.789062 102.488281 L 2.289062 102.488281 Z M 2.289062 5.738281 " clip-rule="nonzero"/></clipPath></defs><g clip-path="url(#7c2562c54d)"><path fill="#ff9800" d="M 141.511719 5.785156 L 50.484375 5.785156 C 23.910156 5.785156 2.289062 27.40625 2.289062 53.976562 C 2.289062 80.550781 23.910156 102.171875 50.484375 102.171875 L 141.511719 102.171875 C 168.089844 102.171875 189.707031 80.554688 189.707031 53.976562 C 189.707031 27.402344 168.085938 5.785156 141.511719 5.785156 Z M 141.511719 88.402344 L 50.484375 88.402344 C 31.503906 88.402344 16.058594 72.960938 16.058594 53.976562 C 16.058594 34.996094 31.503906 19.554688 50.484375 19.554688 L 141.511719 19.554688 C 160.496094 19.554688 175.9375 34.996094 175.9375 53.976562 C 175.9375 72.960938 160.496094 88.402344 141.511719 88.402344 Z M 141.511719 88.402344 " fill-opacity="1" fill-rule="nonzero"/></g><path fill="#ff9800" d="M 141.511719 40.207031 L 50.484375 40.207031 C 42.878906 40.207031 36.714844 46.375 36.714844 53.976562 C 36.714844 61.582031 42.878906 67.746094 50.484375 67.746094 L 141.511719 67.746094 C 149.117188 67.746094 155.28125 61.582031 155.28125 53.976562 C 155.28125 46.375 149.117188 40.207031 141.511719 40.207031 Z M 141.511719 40.207031 " fill-opacity="1" fill-rule="nonzero"/></svg>