<svg xmlns="http://www.w3.org/2000/svg" xmlns:xlink="http://www.w3.org/1999/xlink" width="500" zoomAndPan="magnify" viewBox="0 0 375 374.999991" height="500" preserveAspectRatio="xMidYMid meet" version="1.2"><defs><clipPath id="1045c30fb0"><path d="M 187.5 0 C 83.945312 0 0 83.945312 0 187.5 C 0 291.054688 83.945312 375 187.5 375 C 291.054688 375 375 291.054688 375 187.5 C 375 83.945312 291.054688 0 187.5 0 Z M 187.5 0 "/></clipPath><clipPath id="eceef9ac29"><path d="M 51.660156 37.5 L 323.160156 37.5 L 323.160156 177.75 L 51.660156 177.75 Z M 51.660156 37.5 "/></clipPath><clipPath id="ced0ac4fd3"><path d="M 100.085938 177.414062 L 274.835938 177.414062 L 274.835938 352.164062 L 100.085938 352.164062 Z M 100.085938 177.414062 "/></clipPath></defs><g id="0736d40b5b"><g clip-rule="nonzero" clip-path="url(#1045c30fb0)"><rect x="0" width="375" y="0" height="374.999991" style="fill:#ffffff;fill-opacity:1;stroke:none;"/></g><g clip-rule="nonzero" clip-path="url(#eceef9ac29)"><path style=" stroke:none;fill-rule:nonzero;fill:#01e376;fill-opacity:1;" d="M 253.34375 37.566406 L 121.476562 37.566406 C 82.980469 37.566406 51.660156 68.886719 51.660156 107.382812 C 51.660156 145.878906 82.980469 177.199219 121.476562 177.199219 L 253.34375 177.199219 C 291.839844 177.199219 323.160156 145.878906 323.160156 107.382812 C 323.160156 68.886719 291.839844 37.566406 253.34375 37.566406 Z M 253.34375 157.25 L 121.476562 157.25 C 93.980469 157.25 71.605469 134.882812 71.605469 107.382812 C 71.605469 79.882812 93.980469 57.511719 121.476562 57.511719 L 253.34375 57.511719 C 280.839844 57.511719 303.214844 79.882812 303.214844 107.382812 C 303.214844 134.882812 280.839844 157.25 253.34375 157.25 Z M 253.34375 157.25 "/></g><path style=" stroke:none;fill-rule:nonzero;fill:#01e376;fill-opacity:1;" d="M 253.34375 87.4375 L 121.476562 87.4375 C 110.460938 87.4375 101.53125 96.367188 101.53125 107.382812 C 101.53125 118.398438 110.460938 127.328125 121.476562 127.328125 L 253.34375 127.328125 C 264.359375 127.328125 273.292969 118.398438 273.292969 107.382812 C 273.292969 96.367188 264.359375 87.4375 253.34375 87.4375 Z M 253.34375 87.4375 "/><g clip-rule="nonzero" clip-path="url(#ced0ac4fd3)"><path style=" stroke:none;fill-rule:nonzero;fill:#01e376;fill-opacity:1;" d="M 187.460938 177.414062 C 139.207031 177.414062 100.085938 216.535156 100.085938 264.789062 C 100.085938 313.042969 139.207031 352.164062 187.460938 352.164062 C 235.714844 352.164062 274.835938 313.042969 274.835938 264.789062 C 274.835938 216.535156 235.714844 177.414062 187.460938 177.414062 Z M 187.460938 338.351562 C 146.808594 338.351562 113.898438 305.394531 113.898438 264.789062 C 113.898438 224.183594 146.808594 191.226562 187.460938 191.226562 C 228.109375 191.226562 261.023438 224.136719 261.023438 264.789062 C 261.023438 305.441406 228.109375 338.351562 187.460938 338.351562 Z M 187.460938 338.351562 "/></g><path style=" stroke:none;fill-rule:nonzero;fill:#01e376;fill-opacity:1;" d="M 214.902344 256.398438 L 193.625 256.398438 L 193.625 208.933594 C 193.625 205.457031 188.941406 204.347656 187.367188 207.453125 L 157.050781 268.40625 C 155.984375 270.582031 157.5625 273.179688 160.019531 273.179688 L 181.292969 273.179688 L 181.292969 320.597656 C 181.292969 324.074219 185.976562 325.1875 187.550781 322.082031 L 217.867188 261.128906 C 218.933594 258.949219 217.355469 256.398438 214.902344 256.398438 Z M 214.902344 256.398438 "/><path style=" stroke:none;fill-rule:nonzero;fill:#000000;fill-opacity:0.05;" d="M 214.902344 256.398438 L 213.511719 256.398438 C 208.921875 276.285156 197.238281 293.4375 181.292969 305.070312 L 181.292969 320.644531 C 181.292969 324.121094 185.976562 325.234375 187.550781 322.128906 L 217.867188 261.175781 C 218.933594 258.949219 217.355469 256.398438 214.902344 256.398438 Z M 214.902344 256.398438 "/></g></svg>