<svg xmlns="http://www.w3.org/2000/svg" xmlns:xlink="http://www.w3.org/1999/xlink" width="256" zoomAndPan="magnify" viewBox="0 0 192 107.999999" height="144" preserveAspectRatio="xMidYMid meet" version="1.0"><defs><g/><clipPath id="3c6297f56a"><path d="M 29 52.316406 L 49 52.316406 L 49 92.390625 L 29 92.390625 Z M 29 52.316406 " clip-rule="nonzero"/></clipPath><clipPath id="0ec77600e4"><path d="M 10.601562 52.316406 L 34 52.316406 L 34 75 L 10.601562 75 Z M 10.601562 52.316406 " clip-rule="nonzero"/></clipPath><clipPath id="b52579dc0b"><path d="M 52 52.316406 L 72.851562 52.316406 L 72.851562 67 L 52 67 Z M 52 52.316406 " clip-rule="nonzero"/></clipPath><clipPath id="6b48ae0042"><path d="M 42 52.316406 L 72 52.316406 L 72 92.390625 L 42 92.390625 Z M 42 52.316406 " clip-rule="nonzero"/></clipPath><clipPath id="3e25f818f1"><rect x="0" width="103" y="0" height="37"/></clipPath><clipPath id="396cbac98d"><path d="M 32.371094 10.800781 L 62.371094 10.800781 L 62.371094 26.550781 L 32.371094 26.550781 Z M 32.371094 10.800781 " clip-rule="nonzero"/></clipPath><clipPath id="0e99eb2a56"><rect x="0" width="41" y="0" height="37"/></clipPath><clipPath id="05ad24830a"><rect x="0" width="70" y="0" height="37"/></clipPath><clipPath id="b26e9f2ab7"><path d="M 18 33 L 29.414062 33 L 29.414062 40 L 18 40 Z M 18 33 " clip-rule="nonzero"/></clipPath><clipPath id="401911f5af"><path d="M 2.414062 21.441406 L 29.414062 21.441406 L 29.414062 52.941406 L 2.414062 52.941406 Z M 2.414062 21.441406 " clip-rule="nonzero"/></clipPath></defs><g clip-path="url(#3c6297f56a)"><path fill="#ff9800" d="M 30.785156 89.917969 C 30.785156 89.199219 31.371094 88.613281 32.089844 88.613281 C 32.808594 88.613281 33.390625 89.199219 33.390625 89.917969 C 33.390625 90.636719 32.808594 91.21875 32.089844 91.21875 C 31.371094 91.21875 30.785156 90.636719 30.785156 89.917969 Z M 33.84375 58.398438 C 33.84375 59.117188 33.261719 59.699219 32.542969 59.699219 C 31.824219 59.699219 31.242188 59.117188 31.242188 58.398438 C 31.242188 57.679688 31.824219 57.09375 32.542969 57.09375 C 33.261719 57.09375 33.84375 57.679688 33.84375 58.398438 Z M 46.339844 44.070312 C 47.011719 44.125 47.539062 44.683594 47.539062 45.367188 C 47.539062 46.085938 46.957031 46.667969 46.238281 46.667969 C 45.519531 46.667969 44.9375 46.085938 44.9375 45.367188 C 44.9375 44.683594 45.464844 44.125 46.136719 44.070312 Z M 42.433594 49.820312 C 42.433594 50.539062 41.851562 51.121094 41.132812 51.121094 C 40.414062 51.121094 39.832031 50.539062 39.832031 49.820312 C 39.832031 49.101562 40.414062 48.519531 41.132812 48.519531 C 41.851562 48.519531 42.433594 49.101562 42.433594 49.820312 Z M 43.726562 87.046875 C 43.726562 87.765625 43.144531 88.347656 42.425781 88.347656 C 41.707031 88.347656 41.125 87.765625 41.125 87.046875 C 41.125 86.328125 41.707031 85.746094 42.425781 85.746094 C 43.144531 85.746094 43.726562 86.328125 43.726562 87.046875 Z M 40.328125 78.894531 C 40.328125 79.613281 39.742188 80.195312 39.023438 80.195312 C 38.304688 80.195312 37.722656 79.613281 37.722656 78.894531 C 37.722656 78.175781 38.304688 77.59375 39.023438 77.59375 C 39.742188 77.59375 40.328125 78.175781 40.328125 78.894531 Z M 34.363281 89.917969 C 34.363281 88.828125 33.605469 87.921875 32.585938 87.695312 L 32.585938 76.703125 L 38.527344 70.761719 L 38.527344 76.671875 C 37.507812 76.902344 36.746094 77.808594 36.746094 78.894531 C 36.746094 80.152344 37.765625 81.171875 39.023438 81.171875 C 40.28125 81.171875 41.300781 80.152344 41.300781 78.894531 C 41.300781 77.808594 40.539062 76.902344 39.523438 76.671875 L 39.523438 68.492188 L 41.929688 70.898438 L 41.929688 84.828125 C 40.910156 85.054688 40.148438 85.960938 40.148438 87.046875 C 40.148438 88.304688 41.167969 89.324219 42.425781 89.324219 C 43.683594 89.324219 44.703125 88.304688 44.703125 87.046875 C 44.703125 85.960938 43.941406 85.054688 42.925781 84.828125 L 42.925781 70.488281 L 39.523438 67.085938 L 39.523438 53.425781 L 33.039062 46.945312 L 33.039062 40.855469 L 40.011719 33.882812 L 40.011719 26.128906 L 45.769531 31.890625 L 45.769531 36.738281 L 40.636719 41.875 L 40.636719 47.597656 C 39.617188 47.824219 38.855469 48.734375 38.855469 49.820312 C 38.855469 51.078125 39.875 52.097656 41.132812 52.097656 C 42.390625 52.097656 43.410156 51.078125 43.410156 49.820312 C 43.410156 48.734375 42.648438 47.824219 41.632812 47.597656 L 41.632812 42.285156 L 45.769531 38.144531 L 45.769531 43.140625 C 44.738281 43.355469 43.960938 44.269531 43.960938 45.367188 C 43.960938 46.625 44.980469 47.644531 46.238281 47.644531 C 47.496094 47.644531 48.515625 46.625 48.515625 45.367188 C 48.515625 44.292969 47.769531 43.390625 46.769531 43.152344 L 46.769531 31.476562 L 40.011719 24.722656 L 40.011719 18.351562 C 40.242188 18.203125 40.394531 17.945312 40.394531 17.652344 L 40.394531 12.132812 L 38.464844 12.132812 L 38.464844 17.652344 C 38.464844 18.011719 38.695312 18.320312 39.015625 18.4375 L 39.015625 33.46875 L 32.042969 40.441406 L 32.042969 56.175781 C 31.027344 56.402344 30.265625 57.308594 30.265625 58.398438 C 30.265625 59.65625 31.285156 60.671875 32.542969 60.671875 C 33.800781 60.671875 34.820312 59.65625 34.820312 58.398438 C 34.820312 57.308594 34.058594 56.402344 33.039062 56.175781 L 33.039062 48.351562 L 38.527344 53.839844 L 38.527344 69.355469 L 31.589844 76.292969 L 31.589844 87.695312 C 30.570312 87.921875 29.8125 88.828125 29.8125 89.917969 C 29.8125 91.171875 30.832031 92.191406 32.089844 92.191406 C 33.34375 92.191406 34.363281 91.171875 34.363281 89.917969 " fill-opacity="1" fill-rule="nonzero"/></g><g clip-path="url(#0ec77600e4)"><path fill="#000000" d="M 18.339844 72.371094 C 18.339844 71.65625 18.925781 71.070312 19.644531 71.070312 C 20.363281 71.070312 20.945312 71.65625 20.945312 72.371094 C 20.945312 73.089844 20.363281 73.671875 19.644531 73.671875 C 18.925781 73.671875 18.339844 73.089844 18.339844 72.371094 Z M 14.417969 63.199219 C 14.417969 63.917969 13.835938 64.5 13.117188 64.5 C 12.398438 64.5 11.816406 63.917969 11.816406 63.199219 C 11.816406 62.480469 12.398438 61.898438 13.117188 61.898438 C 13.835938 61.898438 14.417969 62.480469 14.417969 63.199219 Z M 28.285156 46.347656 C 28.285156 47.066406 27.699219 47.648438 26.980469 47.648438 C 26.265625 47.648438 25.683594 47.066406 25.683594 46.347656 C 25.683594 45.628906 26.265625 45.046875 26.980469 45.046875 C 27.699219 45.046875 28.285156 45.628906 28.285156 46.347656 Z M 28.320312 70.308594 C 28.320312 71.027344 27.738281 71.609375 27.019531 71.609375 C 26.300781 71.609375 25.71875 71.027344 25.71875 70.308594 C 25.71875 69.589844 26.300781 69.007812 27.019531 69.007812 C 27.738281 69.007812 28.320312 69.589844 28.320312 70.308594 Z M 21.921875 72.371094 C 21.921875 71.285156 21.15625 70.375 20.140625 70.152344 L 20.140625 54.609375 L 26.519531 60.988281 L 26.519531 68.085938 C 25.503906 68.3125 24.742188 69.222656 24.742188 70.308594 C 24.742188 71.566406 25.761719 72.585938 27.019531 72.585938 C 28.273438 72.585938 29.292969 71.566406 29.292969 70.308594 C 29.292969 69.222656 28.535156 68.3125 27.515625 68.085938 L 27.515625 60.578125 L 20.140625 53.199219 L 20.140625 41.941406 L 26.519531 35.558594 L 26.519531 44.117188 C 25.484375 44.332031 24.707031 45.25 24.707031 46.347656 C 24.707031 47.605469 25.726562 48.625 26.980469 48.625 C 28.238281 48.625 29.257812 47.605469 29.257812 46.347656 C 29.257812 45.273438 28.515625 44.375 27.515625 44.136719 L 27.515625 27.558594 L 33.492188 21.582031 L 33.492188 18.390625 C 33.757812 18.25 33.9375 17.972656 33.9375 17.652344 L 33.9375 12.132812 L 32.007812 12.132812 L 32.007812 17.652344 C 32.007812 17.988281 32.207031 18.277344 32.496094 18.410156 L 32.496094 21.171875 L 26.519531 27.148438 L 26.519531 34.152344 L 19.144531 41.527344 L 19.144531 48.363281 L 12.621094 54.886719 L 12.621094 60.976562 C 11.601562 61.203125 10.84375 62.113281 10.84375 63.199219 C 10.84375 64.457031 11.859375 65.476562 13.117188 65.476562 C 14.375 65.476562 15.394531 64.457031 15.394531 63.199219 C 15.394531 62.113281 14.632812 61.203125 13.617188 60.976562 L 13.617188 55.296875 L 19.144531 49.769531 L 19.144531 70.152344 C 18.125 70.378906 17.367188 71.289062 17.367188 72.371094 C 17.367188 73.628906 18.386719 74.648438 19.644531 74.648438 C 20.902344 74.648438 21.921875 73.628906 21.921875 72.371094 " fill-opacity="1" fill-rule="nonzero"/></g><g clip-path="url(#b52579dc0b)"><path fill="#ff9800" d="M 71.835938 64.433594 C 71.835938 65.152344 71.25 65.738281 70.53125 65.738281 C 69.8125 65.738281 69.230469 65.152344 69.230469 64.433594 C 69.230469 63.714844 69.8125 63.132812 70.53125 63.132812 C 71.25 63.132812 71.835938 63.714844 71.835938 64.433594 Z M 53.351562 18.390625 L 53.351562 21.398438 L 64.929688 32.976562 L 64.929688 52.183594 L 70.035156 57.289062 L 70.035156 62.214844 C 69.015625 62.441406 68.257812 63.347656 68.257812 64.433594 C 68.257812 65.691406 69.273438 66.710938 70.53125 66.710938 C 71.789062 66.710938 72.808594 65.691406 72.808594 64.433594 C 72.808594 63.347656 72.046875 62.441406 71.03125 62.214844 L 71.03125 56.875 L 65.921875 51.769531 L 65.921875 32.5625 L 54.347656 20.988281 L 54.347656 18.40625 C 54.632812 18.273438 54.828125 17.984375 54.828125 17.652344 L 54.828125 12.132812 L 52.898438 12.132812 L 52.898438 17.652344 C 52.898438 17.972656 53.082031 18.253906 53.351562 18.390625 " fill-opacity="1" fill-rule="nonzero"/></g><g clip-path="url(#6b48ae0042)"><path fill="#000000" d="M 70.792969 82.359375 C 70.792969 83.078125 70.207031 83.660156 69.488281 83.660156 C 68.769531 83.660156 68.1875 83.078125 68.1875 82.359375 C 68.1875 81.640625 68.769531 81.058594 69.488281 81.058594 C 70.207031 81.058594 70.792969 81.640625 70.792969 82.359375 Z M 62.351562 70.027344 C 62.910156 70.171875 63.328125 70.679688 63.328125 71.285156 C 63.328125 72.003906 62.746094 72.589844 62.027344 72.589844 C 61.304688 72.589844 60.722656 72.003906 60.722656 71.285156 C 60.722656 70.679688 61.140625 70.171875 61.699219 70.027344 Z M 55.832031 90.175781 C 55.832031 90.894531 55.246094 91.476562 54.53125 91.476562 C 53.8125 91.476562 53.226562 90.894531 53.226562 90.175781 C 53.226562 89.457031 53.8125 88.875 54.53125 88.875 C 55.246094 88.875 55.832031 89.457031 55.832031 90.175781 Z M 57.898438 59.792969 C 57.898438 60.511719 57.316406 61.09375 56.59375 61.09375 C 55.878906 61.09375 55.292969 60.511719 55.292969 59.792969 C 55.292969 59.074219 55.878906 58.488281 56.59375 58.488281 C 57.316406 58.488281 57.898438 59.074219 57.898438 59.792969 Z M 52.039062 63.257812 C 52.039062 63.976562 51.457031 64.558594 50.738281 64.558594 C 50.015625 64.558594 49.433594 63.976562 49.433594 63.257812 C 49.433594 62.539062 50.015625 61.957031 50.738281 61.957031 C 51.457031 61.957031 52.039062 62.539062 52.039062 63.257812 Z M 45.363281 66.945312 C 45.992188 67.035156 46.480469 67.578125 46.480469 68.234375 C 46.480469 68.953125 45.894531 69.535156 45.175781 69.535156 C 44.457031 69.535156 43.875 68.953125 43.875 68.234375 C 43.875 67.578125 44.359375 67.035156 44.992188 66.945312 Z M 45.738281 18.398438 L 45.738281 24.167969 L 56.074219 34.503906 L 56.074219 37.558594 L 50.238281 43.394531 L 50.238281 51.273438 L 44.636719 56.875 L 44.636719 66.019531 C 43.640625 66.265625 42.898438 67.160156 42.898438 68.234375 C 42.898438 69.492188 43.917969 70.511719 45.175781 70.511719 C 46.433594 70.511719 47.453125 69.492188 47.453125 68.234375 C 47.453125 67.132812 46.671875 66.210938 45.632812 66.003906 L 45.632812 57.289062 L 50.238281 52.683594 L 50.238281 61.035156 C 49.222656 61.265625 48.460938 62.171875 48.460938 63.257812 C 48.460938 64.515625 49.480469 65.535156 50.738281 65.535156 C 51.992188 65.535156 53.015625 64.515625 53.015625 63.257812 C 53.015625 62.171875 52.25 61.265625 51.234375 61.035156 L 51.234375 51.6875 L 51.246094 51.675781 L 51.234375 51.664062 L 51.234375 43.808594 L 56.074219 38.96875 L 56.074219 57.574219 C 55.070312 57.8125 54.320312 58.714844 54.320312 59.792969 C 54.320312 61.050781 55.339844 62.070312 56.59375 62.070312 C 57.851562 62.070312 58.875 61.050781 58.875 59.792969 C 58.875 58.699219 58.101562 57.785156 57.070312 57.566406 L 57.070312 45.996094 L 61.527344 50.449219 L 61.527344 59.921875 L 54.03125 67.417969 L 54.03125 87.953125 C 53.015625 88.179688 52.253906 89.089844 52.253906 90.175781 C 52.253906 91.433594 53.273438 92.453125 54.53125 92.453125 C 55.785156 92.453125 56.804688 91.433594 56.804688 90.175781 C 56.804688 89.089844 56.046875 88.179688 55.027344 87.953125 L 55.027344 67.832031 L 61.527344 61.332031 L 61.527344 69.066406 C 60.511719 69.292969 59.75 70.199219 59.75 71.285156 C 59.75 72.542969 60.769531 73.5625 62.027344 73.5625 C 63.28125 73.5625 64.304688 72.542969 64.304688 71.285156 C 64.304688 70.199219 63.542969 69.292969 62.523438 69.066406 L 62.523438 65.179688 L 68.992188 71.648438 L 68.992188 80.136719 C 67.972656 80.363281 67.214844 81.273438 67.214844 82.359375 C 67.214844 83.617188 68.234375 84.636719 69.488281 84.636719 C 70.746094 84.636719 71.765625 83.617188 71.765625 82.359375 C 71.765625 81.273438 71.007812 80.363281 69.988281 80.136719 L 69.988281 71.238281 L 62.542969 63.792969 L 62.523438 63.8125 L 62.523438 50.039062 L 57.070312 44.585938 L 57.070312 34.089844 L 46.734375 23.757812 L 46.734375 18.398438 C 47.011719 18.261719 47.203125 17.980469 47.203125 17.652344 L 47.203125 12.132812 L 45.273438 12.132812 L 45.273438 17.652344 C 45.273438 17.980469 45.464844 18.261719 45.738281 18.398438 " fill-opacity="1" fill-rule="nonzero"/></g><g transform="matrix(1, 0, 0, 1, 30, 27)"><g clip-path="url(#3e25f818f1)"><g fill="#ff9800" fill-opacity="1"><g transform="translate(1.834377, 26.039359)"><g><path d="M 13.625 -23.46875 L 23.09375 0 L 17.34375 0 L 15.609375 -4.6875 L 6.6875 -4.6875 L 4.953125 0 L -0.796875 0 L 8.671875 -23.46875 Z M 13.796875 -9.390625 L 11.171875 -16.203125 L 11.125 -16.203125 L 8.5 -9.390625 Z M 13.796875 -9.390625 "/></g></g></g><g fill="#ff9800" fill-opacity="1"><g transform="translate(24.121995, 26.039359)"><g><path d="M 1.703125 -23.46875 L 8.5 -23.46875 C 11.757812 -23.46875 14.546875 -22.351562 16.859375 -20.125 C 19.171875 -17.894531 20.328125 -15.101562 20.328125 -11.75 C 20.328125 -8.375 19.175781 -5.570312 16.875 -3.34375 C 14.570312 -1.113281 11.78125 0 8.5 0 L 1.703125 0 Z M 7.046875 -4.78125 L 7.875 -4.78125 C 9.832031 -4.78125 11.429688 -5.4375 12.671875 -6.75 C 13.910156 -8.070312 14.539062 -9.726562 14.5625 -11.71875 C 14.5625 -13.707031 13.9375 -15.363281 12.6875 -16.6875 C 11.445312 -18.019531 9.84375 -18.6875 7.875 -18.6875 L 7.046875 -18.6875 Z M 7.046875 -4.78125 "/></g></g></g><g fill="#ff9800" fill-opacity="1"><g transform="translate(45.101916, 26.039359)"><g><path d="M 22.921875 -13.140625 L 22.921875 -8.046875 C 22.316406 -5.265625 20.988281 -3.15625 18.9375 -1.71875 C 16.894531 -0.289062 14.613281 0.421875 12.09375 0.421875 C 8.925781 0.421875 6.226562 -0.757812 4 -3.125 C 1.769531 -5.5 0.65625 -8.363281 0.65625 -11.71875 C 0.65625 -15.125 1.742188 -18.003906 3.921875 -20.359375 C 6.097656 -22.710938 8.820312 -23.890625 12.09375 -23.890625 C 15.894531 -23.890625 18.90625 -22.550781 21.125 -19.875 L 17.625 -16.03125 C 16.375 -18.039062 14.632812 -19.046875 12.40625 -19.046875 C 10.75 -19.046875 9.335938 -18.332031 8.171875 -16.90625 C 7.003906 -15.476562 6.421875 -13.75 6.421875 -11.71875 C 6.421875 -9.726562 7.003906 -8.023438 8.171875 -6.609375 C 9.335938 -5.203125 10.75 -4.5 12.40625 -4.5 C 13.769531 -4.5 14.957031 -4.910156 15.96875 -5.734375 C 16.976562 -6.554688 17.484375 -7.648438 17.484375 -9.015625 L 12.09375 -9.015625 L 12.09375 -13.140625 Z M 22.921875 -13.140625 "/></g></g></g><g fill="#ff9800" fill-opacity="1"><g transform="translate(68.668794, 26.039359)"><g><path d="M 15.125 -23.46875 L 15.125 -18.765625 L 7.046875 -18.765625 L 7.046875 -14.109375 L 14.78125 -14.109375 L 14.78125 -9.40625 L 7.046875 -9.40625 L 7.046875 -4.6875 L 15.125 -4.6875 L 15.125 0 L 1.703125 0 L 1.703125 -23.46875 Z M 15.125 -23.46875 "/></g></g></g><g fill="#ff9800" fill-opacity="1"><g transform="translate(85.157083, 26.039359)"><g><path d="M 0.234375 -18.765625 L 0.234375 -23.46875 L 16.71875 -23.46875 L 16.71875 -18.765625 L 11.140625 -18.765625 L 11.140625 0 L 5.796875 0 L 5.796875 -18.765625 Z M 0.234375 -18.765625 "/></g></g></g></g></g><g clip-path="url(#396cbac98d)"><path fill="#ff9800" d="M 54.8125 10.804688 L 40.140625 10.804688 C 35.855469 10.804688 32.371094 14.289062 32.371094 18.574219 C 32.371094 22.855469 35.855469 26.339844 40.140625 26.339844 L 54.8125 26.339844 C 59.097656 26.339844 62.582031 22.855469 62.582031 18.574219 C 62.582031 14.289062 59.097656 10.804688 54.8125 10.804688 Z M 54.8125 24.121094 L 40.140625 24.121094 C 37.082031 24.121094 34.59375 21.632812 34.59375 18.574219 C 34.59375 15.511719 37.082031 13.023438 40.140625 13.023438 L 54.8125 13.023438 C 57.875 13.023438 60.363281 15.511719 60.363281 18.574219 C 60.363281 21.632812 57.875 24.121094 54.8125 24.121094 Z M 54.8125 24.121094 " fill-opacity="1" fill-rule="nonzero"/></g><path fill="#ff9800" d="M 54.8125 16.351562 L 40.140625 16.351562 C 38.914062 16.351562 37.921875 17.347656 37.921875 18.574219 C 37.921875 19.796875 38.914062 20.792969 40.140625 20.792969 L 54.8125 20.792969 C 56.039062 20.792969 57.035156 19.796875 57.035156 18.574219 C 57.035156 17.347656 56.039062 16.351562 54.8125 16.351562 Z M 54.8125 16.351562 " fill-opacity="1" fill-rule="nonzero"/><g transform="matrix(1, 0, 0, 1, 150, 57)"><g clip-path="url(#0e99eb2a56)"><g fill="#000000" fill-opacity="1"><g transform="translate(0.256941, 26.249439)"><g><path d="M 1.703125 -23.46875 L 8.984375 -23.46875 C 11.179688 -23.46875 12.929688 -22.992188 14.234375 -22.046875 C 15.546875 -21.109375 16.203125 -19.585938 16.203125 -17.484375 C 16.203125 -15.140625 15.226562 -13.460938 13.28125 -12.453125 C 16.613281 -11.867188 18.28125 -9.898438 18.28125 -6.546875 C 18.28125 -4.566406 17.597656 -2.976562 16.234375 -1.78125 C 14.867188 -0.59375 12.992188 0 10.609375 0 L 1.703125 0 Z M 7.046875 -14.28125 L 7.484375 -14.28125 C 8.671875 -14.28125 9.554688 -14.488281 10.140625 -14.90625 C 10.734375 -15.320312 11.03125 -16.003906 11.03125 -16.953125 C 11.03125 -18.546875 9.847656 -19.34375 7.484375 -19.34375 L 7.046875 -19.34375 Z M 7.046875 -4.125 L 8.734375 -4.125 C 11.347656 -4.125 12.65625 -4.992188 12.65625 -6.734375 C 12.65625 -7.773438 12.328125 -8.523438 11.671875 -8.984375 C 11.015625 -9.441406 10.035156 -9.671875 8.734375 -9.671875 L 7.046875 -9.671875 Z M 7.046875 -4.125 "/></g></g></g><g fill="#000000" fill-opacity="1"><g transform="translate(19.188637, 26.249439)"><g><path d="M 1.703125 -23.46875 L 8.5 -23.46875 C 11.757812 -23.46875 14.546875 -22.351562 16.859375 -20.125 C 19.171875 -17.894531 20.328125 -15.101562 20.328125 -11.75 C 20.328125 -8.375 19.175781 -5.570312 16.875 -3.34375 C 14.570312 -1.113281 11.78125 0 8.5 0 L 1.703125 0 Z M 7.046875 -4.78125 L 7.875 -4.78125 C 9.832031 -4.78125 11.429688 -5.4375 12.671875 -6.75 C 13.910156 -8.070312 14.539062 -9.726562 14.5625 -11.71875 C 14.5625 -13.707031 13.9375 -15.363281 12.6875 -16.6875 C 11.445312 -18.019531 9.84375 -18.6875 7.875 -18.6875 L 7.046875 -18.6875 Z M 7.046875 -4.78125 "/></g></g></g></g></g><g transform="matrix(1, 0, 0, 1, 80, 57)"><g clip-path="url(#05ad24830a)"><g fill="#000000" fill-opacity="1"><g transform="translate(0.521222, 26.249439)"><g><path d="M 14.1875 -4.828125 C 15 -4.828125 15.789062 -4.953125 16.5625 -5.203125 C 17.332031 -5.453125 17.894531 -5.691406 18.25 -5.921875 L 18.796875 -6.28125 L 21.078125 -1.734375 C 20.992188 -1.679688 20.882812 -1.601562 20.75 -1.5 C 20.625 -1.40625 20.316406 -1.226562 19.828125 -0.96875 C 19.347656 -0.71875 18.832031 -0.5 18.28125 -0.3125 C 17.726562 -0.125 17.003906 0.0390625 16.109375 0.1875 C 15.222656 0.34375 14.304688 0.421875 13.359375 0.421875 C 11.179688 0.421875 9.113281 -0.109375 7.15625 -1.171875 C 5.207031 -2.242188 3.632812 -3.71875 2.4375 -5.59375 C 1.25 -7.476562 0.65625 -9.507812 0.65625 -11.6875 C 0.65625 -13.332031 1.003906 -14.914062 1.703125 -16.4375 C 2.410156 -17.957031 3.34375 -19.253906 4.5 -20.328125 C 5.664062 -21.410156 7.023438 -22.273438 8.578125 -22.921875 C 10.140625 -23.566406 11.734375 -23.890625 13.359375 -23.890625 C 14.878906 -23.890625 16.28125 -23.707031 17.5625 -23.34375 C 18.84375 -22.988281 19.75 -22.628906 20.28125 -22.265625 L 21.078125 -21.71875 L 18.796875 -17.171875 C 18.660156 -17.285156 18.457031 -17.421875 18.1875 -17.578125 C 17.925781 -17.742188 17.394531 -17.957031 16.59375 -18.21875 C 15.800781 -18.488281 15 -18.625 14.1875 -18.625 C 12.894531 -18.625 11.738281 -18.414062 10.71875 -18 C 9.695312 -17.582031 8.882812 -17.03125 8.28125 -16.34375 C 7.6875 -15.664062 7.234375 -14.929688 6.921875 -14.140625 C 6.609375 -13.359375 6.453125 -12.5625 6.453125 -11.75 C 6.453125 -9.96875 7.117188 -8.367188 8.453125 -6.953125 C 9.796875 -5.535156 11.707031 -4.828125 14.1875 -4.828125 Z M 14.1875 -4.828125 "/></g></g></g><g fill="#000000" fill-opacity="1"><g transform="translate(21.925976, 26.249439)"><g><path d="M 7.046875 -23.46875 L 7.046875 0 L 1.703125 0 L 1.703125 -23.46875 Z M 7.046875 -23.46875 "/></g></g></g><g fill="#000000" fill-opacity="1"><g transform="translate(29.316547, 26.249439)"><g><path d="M 0.234375 -18.765625 L 0.234375 -23.46875 L 16.71875 -23.46875 L 16.71875 -18.765625 L 11.140625 -18.765625 L 11.140625 0 L 5.796875 0 L 5.796875 -18.765625 Z M 0.234375 -18.765625 "/></g></g></g><g fill="#000000" fill-opacity="1"><g transform="translate(46.258427, 26.249439)"><g><path d="M -0.859375 -23.46875 L 5.578125 -23.46875 L 10.46875 -15.953125 L 15.359375 -23.46875 L 21.78125 -23.46875 L 13.140625 -10.515625 L 13.140625 0 L 7.796875 0 L 7.796875 -10.515625 Z M -0.859375 -23.46875 "/></g></g></g></g></g><g clip-path="url(#b26e9f2ab7)"><path fill="#ff9800" d="M 29.296875 39.316406 L 29.296875 33.367188 L 18.386719 33.367188 L 18.386719 39.316406 L 29.296875 39.316406 " fill-opacity="1" fill-rule="nonzero"/></g><g clip-path="url(#401911f5af)"><path fill="#ff9800" d="M 23.34375 47.230469 L 18.386719 47.230469 C 12.921875 47.230469 8.488281 42.800781 8.488281 37.335938 C 8.488281 31.867188 12.921875 27.4375 18.386719 27.4375 L 29.296875 27.414062 L 29.296875 21.4375 L 18.386719 21.4375 C 9.605469 21.4375 2.488281 28.554688 2.488281 37.335938 C 2.488281 46.113281 9.605469 53.230469 18.386719 53.230469 L 29.296875 53.230469 L 29.296875 40.640625 L 23.34375 40.640625 L 23.34375 47.230469 " fill-opacity="1" fill-rule="nonzero"/></g></svg>