<svg xmlns="http://www.w3.org/2000/svg" xmlns:xlink="http://www.w3.org/1999/xlink" width="960" zoomAndPan="magnify" viewBox="0 0 720 404.99999" height="540" preserveAspectRatio="xMidYMid meet" version="1.2"><defs><clipPath id="6ad3efd447"><path d="M 23.746094 117.585938 L 116 117.585938 L 116 226.0625 L 23.746094 226.0625 Z M 23.746094 117.585938 "/></clipPath><clipPath id="42d84735e1"><path d="M 324.183594 137.847656 L 413.097656 137.847656 L 413.097656 226.761719 L 324.183594 226.761719 Z M 324.183594 137.847656 "/></clipPath><clipPath id="80e1a79cbc"><path d="M 115.878906 46.800781 L 252.808594 46.800781 L 252.808594 117.929688 L 115.878906 117.929688 Z M 115.878906 46.800781 "/></clipPath></defs><g id="dce75126ce"><g style="fill:#000000;fill-opacity:1;"><g transform="translate(119.279351, 222.521638)"><path style="stroke:none" d="M 53.5 -82.984375 L 53.5 -66.375 L 24.9375 -66.375 L 24.9375 -49.890625 L 52.296875 -49.890625 L 52.296875 -33.296875 L 24.9375 -33.296875 L 24.9375 -16.59375 L 53.5 -16.59375 L 53.5 0 L 6.03125 0 L 6.03125 -82.984375 Z M 53.5 -82.984375 "/></g></g><g style="fill:#000000;fill-opacity:1;"><g transform="translate(177.610691, 222.521638)"><path style="stroke:none" d="M 48.171875 -82.984375 L 81.671875 0 L 61.359375 0 L 55.21875 -16.59375 L 23.640625 -16.59375 L 17.5 0 L -2.8125 0 L 30.671875 -82.984375 Z M 48.78125 -33.1875 L 39.53125 -57.328125 L 39.328125 -57.328125 L 30.078125 -33.1875 Z M 48.78125 -33.1875 "/></g></g><g style="fill:#000000;fill-opacity:1;"><g transform="translate(256.458579, 222.521638)"><path style="stroke:none" d="M 6.03125 -82.984375 L 35.703125 -82.984375 C 43.679688 -82.984375 50.1875 -80.851562 55.21875 -76.59375 C 60.25 -72.332031 62.765625 -66.242188 62.765625 -58.328125 C 62.765625 -52.234375 61.238281 -47.125 58.1875 -43 C 55.132812 -38.875 50.992188 -35.972656 45.765625 -34.296875 L 74.328125 0 L 50.28125 0 L 24.9375 -32.78125 L 24.9375 0 L 6.03125 0 Z M 24.9375 -46.171875 L 27.15625 -46.171875 C 28.894531 -46.171875 30.367188 -46.203125 31.578125 -46.265625 C 32.785156 -46.328125 34.160156 -46.5625 35.703125 -46.96875 C 37.242188 -47.375 38.484375 -47.941406 39.421875 -48.671875 C 40.359375 -49.410156 41.160156 -50.484375 41.828125 -51.890625 C 42.503906 -53.304688 42.84375 -55.019531 42.84375 -57.03125 C 42.84375 -59.039062 42.503906 -60.75 41.828125 -62.15625 C 41.160156 -63.5625 40.359375 -64.632812 39.421875 -65.375 C 38.484375 -66.113281 37.242188 -66.679688 35.703125 -67.078125 C 34.160156 -67.484375 32.785156 -67.71875 31.578125 -67.78125 C 30.367188 -67.851562 28.894531 -67.890625 27.15625 -67.890625 L 24.9375 -67.890625 Z M 24.9375 -46.171875 "/></g></g><g style="fill:#000000;fill-opacity:1;"><g transform="translate(328.499271, 222.521638)"><path style="stroke:none" d=""/></g></g><g style="fill:#000000;fill-opacity:1;"><g transform="translate(355.955223, 222.521638)"><path style="stroke:none" d=""/></g></g><g style="fill:#000000;fill-opacity:1;"><g transform="translate(383.411174, 222.521638)"><path style="stroke:none" d=""/></g></g><g style="fill:#000000;fill-opacity:1;"><g transform="translate(410.884651, 222.521638)"><path style="stroke:none" d="M 24.9375 -51.5 L 24.9375 0 L 6.03125 0 L 6.03125 -82.984375 L 24.9375 -82.984375 L 57.9375 -31.484375 L 58.140625 -31.484375 L 58.140625 -82.984375 L 77.046875 -82.984375 L 77.046875 0 L 58.140625 0 L 25.140625 -51.5 Z M 24.9375 -51.5 "/></g></g><g style="fill:#000000;fill-opacity:1;"><g transform="translate(493.956564, 222.521638)"><path style="stroke:none" d="M 24.9375 -82.984375 L 24.9375 0 L 6.03125 0 L 6.03125 -82.984375 Z M 24.9375 -82.984375 "/></g></g><g style="fill:#000000;fill-opacity:1;"><g transform="translate(524.932522, 222.521638)"><path style="stroke:none" d="M 50.1875 -17.09375 C 53.070312 -17.09375 55.867188 -17.53125 58.578125 -18.40625 C 61.296875 -19.28125 63.296875 -20.117188 64.578125 -20.921875 L 66.484375 -22.234375 L 74.53125 -6.140625 C 74.257812 -5.929688 73.890625 -5.660156 73.421875 -5.328125 C 72.953125 -4.992188 71.863281 -4.375 70.15625 -3.46875 C 68.445312 -2.5625 66.617188 -1.769531 64.671875 -1.09375 C 62.722656 -0.425781 60.171875 0.171875 57.015625 0.703125 C 53.867188 1.242188 50.617188 1.515625 47.265625 1.515625 C 39.554688 1.515625 32.25 -0.378906 25.34375 -4.171875 C 18.4375 -7.960938 12.867188 -13.175781 8.640625 -19.8125 C 4.421875 -26.445312 2.3125 -33.625 2.3125 -41.34375 C 2.3125 -47.175781 3.550781 -52.773438 6.03125 -58.140625 C 8.507812 -63.503906 11.8125 -68.09375 15.9375 -71.90625 C 20.0625 -75.726562 24.875 -78.78125 30.375 -81.0625 C 35.875 -83.34375 41.503906 -84.484375 47.265625 -84.484375 C 52.628906 -84.484375 57.570312 -83.84375 62.09375 -82.5625 C 66.625 -81.289062 69.832031 -80.019531 71.71875 -78.75 L 74.53125 -76.84375 L 66.484375 -60.75 C 66.015625 -61.15625 65.3125 -61.640625 64.375 -62.203125 C 63.4375 -62.773438 61.554688 -63.53125 58.734375 -64.46875 C 55.921875 -65.40625 53.070312 -65.875 50.1875 -65.875 C 45.625 -65.875 41.53125 -65.132812 37.90625 -63.65625 C 34.289062 -62.1875 31.425781 -60.242188 29.3125 -57.828125 C 27.207031 -55.421875 25.597656 -52.820312 24.484375 -50.03125 C 23.378906 -47.25 22.828125 -44.414062 22.828125 -41.53125 C 22.828125 -35.226562 25.191406 -29.578125 29.921875 -24.578125 C 34.648438 -19.585938 41.40625 -17.09375 50.1875 -17.09375 Z M 50.1875 -17.09375 "/></g></g><path style=" stroke:none;fill-rule:nonzero;fill:#000000;fill-opacity:1;" d="M 115.96875 178.554688 L 115.96875 158.257812 L 78.535156 158.257812 L 78.535156 178.554688 L 115.96875 178.554688 "/><g clip-rule="nonzero" clip-path="url(#6ad3efd447)"><path style=" stroke:none;fill-rule:nonzero;fill:#000000;fill-opacity:1;" d="M 95.550781 205.542969 L 78.535156 205.542969 C 59.78125 205.542969 44.578125 190.429688 44.578125 171.789062 C 44.578125 153.148438 59.78125 138.03125 78.535156 138.03125 L 115.96875 137.960938 L 115.96875 117.570312 L 78.535156 117.570312 C 48.414062 117.570312 23.992188 141.84375 23.992188 171.789062 C 23.992188 201.730469 48.414062 226.007812 78.535156 226.007812 L 115.96875 226.007812 L 115.96875 183.0625 L 95.550781 183.0625 L 95.550781 205.542969 "/></g><g clip-rule="nonzero" clip-path="url(#42d84735e1)"><path style=" stroke:none;fill-rule:nonzero;fill:#01e376;fill-opacity:1;" d="M 368.640625 137.847656 C 344.085938 137.847656 324.183594 157.753906 324.183594 182.304688 C 324.183594 206.855469 344.085938 226.761719 368.640625 226.761719 C 393.191406 226.761719 413.097656 206.855469 413.097656 182.304688 C 413.097656 157.753906 393.191406 137.847656 368.640625 137.847656 Z M 368.640625 219.734375 C 347.957031 219.734375 331.210938 202.964844 331.210938 182.304688 C 331.210938 161.644531 347.957031 144.875 368.640625 144.875 C 389.324219 144.875 406.070312 161.621094 406.070312 182.304688 C 406.070312 202.988281 389.324219 219.734375 368.640625 219.734375 Z M 368.640625 219.734375 "/></g><path style=" stroke:none;fill-rule:nonzero;fill:#01e376;fill-opacity:1;" d="M 382.601562 178.035156 L 371.777344 178.035156 L 371.777344 153.886719 C 371.777344 152.117188 369.394531 151.550781 368.59375 153.128906 L 353.167969 184.144531 C 352.625 185.253906 353.425781 186.574219 354.675781 186.574219 L 365.503906 186.574219 L 365.503906 210.699219 C 365.503906 212.46875 367.882812 213.035156 368.6875 211.457031 L 384.109375 180.441406 C 384.652344 179.332031 383.851562 178.035156 382.601562 178.035156 Z M 382.601562 178.035156 "/><path style=" stroke:none;fill-rule:nonzero;fill:#000000;fill-opacity:0.05;" d="M 382.601562 178.035156 L 381.894531 178.035156 C 379.558594 188.152344 373.617188 196.878906 365.503906 202.800781 L 365.503906 210.726562 C 365.503906 212.492188 367.882812 213.058594 368.6875 211.480469 L 384.109375 180.464844 C 384.652344 179.332031 383.851562 178.035156 382.601562 178.035156 Z M 382.601562 178.035156 "/><g clip-rule="nonzero" clip-path="url(#80e1a79cbc)"><path style=" stroke:none;fill-rule:nonzero;fill:#01e376;fill-opacity:1;" d="M 217.597656 46.832031 L 151.089844 46.832031 C 131.675781 46.832031 115.878906 62.628906 115.878906 82.042969 C 115.878906 101.457031 131.675781 117.253906 151.089844 117.253906 L 217.597656 117.253906 C 237.011719 117.253906 252.808594 101.457031 252.808594 82.042969 C 252.808594 62.625 237.011719 46.832031 217.597656 46.832031 Z M 217.597656 107.191406 L 151.089844 107.191406 C 137.222656 107.191406 125.9375 95.910156 125.9375 82.042969 C 125.9375 68.171875 137.222656 56.890625 151.089844 56.890625 L 217.597656 56.890625 C 231.464844 56.890625 242.746094 68.171875 242.746094 82.042969 C 242.746094 95.910156 231.464844 107.191406 217.597656 107.191406 Z M 217.597656 107.191406 "/></g><path style=" stroke:none;fill-rule:nonzero;fill:#01e376;fill-opacity:1;" d="M 217.597656 71.980469 L 151.089844 71.980469 C 145.535156 71.980469 141.03125 76.488281 141.03125 82.042969 C 141.03125 87.597656 145.535156 92.101562 151.089844 92.101562 L 217.597656 92.101562 C 223.152344 92.101562 227.65625 87.597656 227.65625 82.042969 C 227.65625 76.488281 223.152344 71.980469 217.597656 71.980469 Z M 217.597656 71.980469 "/><g style="fill:#000000;fill-opacity:1;"><g transform="translate(561.617204, 331.871581)"><path style="stroke:none" d="M 6.03125 -82.984375 L 31.78125 -82.984375 C 39.5625 -82.984375 45.765625 -81.320312 50.390625 -78 C 55.023438 -74.6875 57.34375 -69.304688 57.34375 -61.859375 C 57.34375 -53.546875 53.890625 -47.613281 46.984375 -44.0625 C 58.785156 -41.976562 64.6875 -35.003906 64.6875 -23.140625 C 64.6875 -16.160156 62.269531 -10.554688 57.4375 -6.328125 C 52.613281 -2.109375 45.972656 0 37.515625 0 L 6.03125 0 Z M 24.953125 -50.5 L 26.453125 -50.5 C 30.679688 -50.5 33.832031 -51.234375 35.90625 -52.703125 C 37.988281 -54.179688 39.03125 -56.597656 39.03125 -59.953125 C 39.03125 -65.585938 34.835938 -68.40625 26.453125 -68.40625 L 24.953125 -68.40625 Z M 24.953125 -14.59375 L 30.875 -14.59375 C 40.132812 -14.59375 44.765625 -17.675781 44.765625 -23.84375 C 44.765625 -27.53125 43.609375 -30.175781 41.296875 -31.78125 C 38.984375 -33.394531 35.507812 -34.203125 30.875 -34.203125 L 24.953125 -34.203125 Z M 24.953125 -14.59375 "/></g></g><g style="fill:#000000;fill-opacity:1;"><g transform="translate(628.606562, 331.871581)"><path style="stroke:none" d="M 6.03125 -82.984375 L 30.078125 -82.984375 C 41.609375 -82.984375 51.460938 -79.039062 59.640625 -71.15625 C 67.828125 -63.28125 71.921875 -53.410156 71.921875 -41.546875 C 71.921875 -29.609375 67.847656 -19.695312 59.703125 -11.8125 C 51.554688 -3.9375 41.679688 0 30.078125 0 L 6.03125 0 Z M 24.953125 -16.90625 L 27.859375 -16.90625 C 34.765625 -16.90625 40.414062 -19.234375 44.8125 -23.890625 C 49.207031 -28.546875 51.4375 -34.394531 51.5 -41.4375 C 51.5 -48.476562 49.300781 -54.347656 44.90625 -59.046875 C 40.519531 -63.742188 34.835938 -66.09375 27.859375 -66.09375 L 24.953125 -66.09375 Z M 24.953125 -16.90625 "/></g></g></g></svg>